<?xml version="1.0" standalone="no"?>
<!DOCTYPE svg PUBLIC "-//W3C//DTD SVG 20010904//EN"
 "http://www.w3.org/TR/2001/REC-SVG-20010904/DTD/svg10.dtd">
<svg version="1.0" xmlns="http://www.w3.org/2000/svg"
 width="81.000000pt" height="68.000000pt" viewBox="0 0 81.000000 68.000000"
 preserveAspectRatio="xMidYMid meet">

<g transform="translate(0.000000,68.000000) scale(0.100000,-0.100000)"
fill="#000000" stroke="none">
<path d="M454 520 c-26 -10 -64 -57 -64 -79 0 -32 16 -44 40 -31 16 8 20 18
16 33 -3 11 0 27 6 34 37 45 65 -27 48 -124 -19 -113 -70 -183 -131 -183 -46
0 -63 36 -57 124 4 59 11 85 36 129 25 45 29 57 18 66 -17 15 -93 -57 -119
-112 -100 -211 114 -341 270 -163 50 57 73 119 73 199 0 51 -4 62 -29 88 -30
30 -65 36 -107 19z"/>
</g>
</svg>
